<svg xmlns="http://www.w3.org/2000/svg" width="16" height="16" viewBox="0 0 16 16"><path d="M3 0H13C15 0 16 1 16 3V13C16 15 15 16 13 16H3c-2 0-3-1-3-3v-10.5c0-1.5 1-2.5 3-2.5z" fill="#2b2648"/><g transform="translate(-1.5-.5)"><path d="m5.5 3h8c2 0 2 0 2 1.5v1c0 1.5 0 1.5-2 1.5h-10v-2.5c0-1.5 0-1.5 2-1.5z" fill="#603367" stroke="#402244" stroke-width=".25"/><path d="m3.5 7h11v3.5h-11z" fill="#603367" stroke="#402244" stroke-width=".25"/><path d="m3.5 10.5H14.5V12.5c0 1.5 0 1.5-1.5 1.5h-8c-1.5 0-1.5 0-1.5-1.5z" fill="#603367" stroke="#402244" stroke-width=".25"/><rect width="8" height="2" x="4" y="4" rx=".25" opacity=".83" fill="#fff"/><rect width="7" height="1.5" x="4" y="11.5" rx=".25" opacity=".5" fill="#fff"/><rect width="2" height="1.5" x="12" y="11.5" rx=".25" opacity=".5" fill="#fff"/><rect width="2" height="1.5" x="12" y="8" rx=".25" opacity=".5" fill="#fff"/><rect width="7" height="1.5" x="4" y="8" rx=".25" opacity=".5" fill="#fff"/></g><g transform="translate(3-1.2) rotate(25)"><path d="M4.82 15H5.82L5.52 4.5h-.4z" fill="#2bb9ec"/><path d="m3.12 5.08 2.2-1 2.2 1-1.15-2 1.15-1.5h-1.5l-.7-1.6-.7 1.6h-1.5l1.15 1.5z" fill="none" stroke="#2bb9ec" stroke-width=".75"/></g></svg>